<?xml version="1.0" encoding="utf-8"?>
<!-- Generator: Adobe Illustrator 24.1.3, SVG Export Plug-In . SVG Version: 6.00 Build 0)  -->
<svg version="1.1" id="Capa_1" xmlns="http://www.w3.org/2000/svg" xmlns:xlink="http://www.w3.org/1999/xlink" x="0px" y="0px"
	 viewBox="0 0 512 512" style="enable-background:new 0 0 512 512;" xml:space="preserve">
<style type="text/css">
	.st0{fill:#FFFFFF;}
</style>
<path class="st0" d="M256,0C114.8,0,0,114.8,0,256s114.8,256,256,256s256-114.8,256-256S397.2,0,256,0z M256,32
	c123.5,0,224,100.5,224,224c0,51.5-17.6,98.8-46.9,136.6c-112.3-53.1-241.9-53.1-354.2,0C49.6,354.8,32,307.5,32,256
	C32,132.5,132.5,32,256,32z M101.3,417.7c98.7-43.7,210.6-43.7,309.3,0C370.4,456.2,316,480,256,480S141.6,456.2,101.3,417.7z"/>
<path class="st0" d="M256,320c52.9,0,96-43.1,96-96s-43.1-96-96-96s-96,43.1-96,96S203.1,320,256,320z M256,160
	c35.3,0,64,28.7,64,64c0,35.3-28.7,64-64,64c-35.3,0-64-28.7-64-64S220.7,160,256,160z"/>
</svg>
