<?xml version="1.0"?>
<svg xmlns="http://www.w3.org/2000/svg" id="Capa_1" enable-background="new 0 0 512 512" height="512px" viewBox="0 0 512 512" width="512px" class=""><g><g><circle cx="151" cy="256" r="30" data-original="#000000" class="active-path" data-old_color="#000000" fill="#3F3D56"/><circle cx="331" cy="346" r="30" data-original="#000000" class="active-path" data-old_color="#000000" fill="#3F3D56"/><circle cx="331" cy="166" r="30" data-original="#000000" class="active-path" data-old_color="#000000" fill="#3F3D56"/><path d="m256 0c-140.61 0-256 115.39-256 256s115.39 256 256 256 256-115.39 256-256-115.39-256-256-256zm-45.374 259.689 76.478 45.703c10.966-11.848 26.512-19.392 43.896-19.392 33.091 0 60 26.909 60 60s-26.909 60-60 60-60-26.909-60-60c0-4.904.756-9.604 1.871-14.169l-71.803-42.909c-10.739 16.282-29.141 27.078-50.068 27.078-33.091 0-60-26.909-60-60s26.909-60 60-60c18.849 0 35.486 8.906 46.492 22.539l74.606-41.68c-.649-3.533-1.098-7.14-1.098-10.859 0-33.091 26.909-60 60-60s60 26.909 60 60-26.909 60-60 60c-18.587 0-35.013-8.67-46.027-21.976l-74.993 41.896c1.718 10.064.782 11.572.646 13.769z" data-original="#000000" class="active-path" data-old_color="#000000" fill="#3F3D56"/></g></g> </svg>
